<?xml version="1.0" standalone="no"?>
<!DOCTYPE svg PUBLIC "-//W3C//DTD SVG 20010904//EN"
 "http://www.w3.org/TR/2001/REC-SVG-20010904/DTD/svg10.dtd">
<svg version="1.0" xmlns="http://www.w3.org/2000/svg"
 width="600.000000pt" height="600.000000pt" viewBox="0 0 600.000000 600.000000"
 preserveAspectRatio="xMidYMid meet">
<metadata>
Created by potrace 1.14, written by Peter Selinger 2001-2017
</metadata>
<g transform="translate(0.000000,600.000000) scale(0.100000,-0.100000)"
fill="#000000" stroke="none">
<path d="M0 3000 l0 -3000 3000 0 3000 0 0 3000 0 3000 -3000 0 -3000 0 0
-3000z m3387 2049 c420 -220 822 -576 1073 -949 259 -386 392 -802 407 -1265
10 -349 -55 -637 -210 -917 -271 -489 -742 -804 -1299 -869 -162 -19 -463 -6
-614 25 -352 74 -609 209 -844 445 -141 141 -230 266 -310 434 -156 325 -214
723 -154 1041 80 418 381 858 747 1089 16 10 38 17 50 15 18 -2 23 -12 30 -58
37 -264 79 -420 140 -520 40 -66 42 -66 173 -9 285 125 500 348 613 637 81
206 109 489 79 805 -16 168 -17 167 119 96z"/>
</g>
</svg>
